<?xml version="1.0" standalone="no"?>
<!DOCTYPE svg PUBLIC "-//W3C//DTD SVG 20010904//EN"
 "http://www.w3.org/TR/2001/REC-SVG-20010904/DTD/svg10.dtd">
<svg version="1.0" xmlns="http://www.w3.org/2000/svg"
 width="512.000000pt" height="512.000000pt" viewBox="0 0 512.000000 512.000000"
 preserveAspectRatio="xMidYMid meet">

<g transform="translate(0.000000,512.000000) scale(0.100000,-0.100000)"
fill="#000000" stroke="none">
<path d="M2335 4939 c-49 -5 -142 -18 -205 -29 -91 -16 -119 -25 -134 -43 -14
-16 -18 -17 -13 -4 8 22 -4 19 -179 -38 -756 -249 -1348 -870 -1558 -1636 -19
-70 -38 -148 -42 -174 -6 -46 -6 -47 17 -40 56 17 114 71 146 136 28 55 34 80
42 176 15 180 75 278 212 347 152 76 250 58 498 -93 95 -58 175 -90 243 -98
45 -5 48 -8 55 -42 10 -44 10 -212 2 -261 -7 -34 -5 -36 83 -107 l89 -71 107
29 c59 16 110 29 113 29 12 0 32 -61 23 -69 -8 -8 -455 -101 -480 -101 -7 0
-63 37 -125 83 -168 122 -179 129 -179 119 0 -5 65 -55 145 -113 l145 -104 0
-201 c0 -110 3 -269 7 -352 l6 -151 60 52 c33 29 88 75 122 103 l62 52 44 -33
c92 -66 149 -154 185 -285 29 -102 27 -358 -4 -463 -19 -68 -66 -177 -75 -177
-2 0 -30 11 -63 24 -32 13 -84 29 -115 36 -54 12 -56 13 -68 57 -34 129 -139
260 -246 309 -66 31 -173 51 -201 39 -14 -6 2 -11 56 -15 149 -14 278 -108
344 -252 19 -40 37 -84 40 -98 l5 -25 -102 0 c-56 0 -133 -7 -172 -14 -94 -18
-297 -85 -353 -116 -25 -14 -48 -23 -51 -19 -3 3 -6 42 -5 87 1 126 48 236
154 360 l47 55 6 128 c4 71 7 182 7 247 l0 119 62 -4 62 -3 19 143 c10 79 16
150 13 157 -2 7 -32 15 -73 20 -37 4 -71 11 -74 17 -4 6 -21 3 -45 -7 -106
-44 -272 -57 -399 -30 -136 29 -286 119 -370 222 l-44 53 -8 -57 c-15 -109 -9
-478 11 -608 116 -771 581 -1424 1272 -1787 63 -33 117 -59 119 -57 2 2 -40
57 -92 123 -92 114 -95 120 -90 158 20 149 153 236 318 209 101 -16 479 -202
479 -234 0 -14 -96 -2 -179 23 -40 12 -75 19 -78 16 -3 -2 12 -19 33 -37 22
-18 81 -74 132 -125 87 -87 110 -124 77 -124 -19 0 -172 80 -231 121 -25 17
-48 29 -50 26 -3 -3 25 -42 63 -87 81 -97 138 -184 128 -199 -12 -21 -121 50
-233 152 -24 21 -46 37 -48 34 -6 -6 125 -181 139 -186 6 -2 -6 19 -26 47 -20
29 -35 52 -32 52 3 0 29 -18 57 -41 96 -75 158 -96 158 -51 0 22 -60 117 -113
180 -21 24 -37 46 -37 48 0 2 19 -8 42 -22 105 -67 218 -104 218 -73 0 26 -47
84 -138 170 -67 64 -89 90 -72 85 127 -34 210 -41 210 -17 0 22 -87 78 -247
158 l-172 86 43 64 43 64 -60 188 -60 188 32 65 c97 205 102 520 10 714 -32
69 -102 152 -154 184 -20 12 -33 25 -30 30 3 4 39 34 81 66 71 55 77 57 87 39
6 -11 38 -48 71 -83 102 -106 253 -188 428 -231 93 -23 222 -38 198 -23 -8 5
-44 12 -80 16 -131 12 -284 66 -406 142 -72 44 -204 173 -204 198 0 16 157
136 177 136 8 0 13 -12 13 -32 1 -41 39 -136 77 -191 62 -90 197 -172 344
-207 196 -47 405 -12 593 98 64 38 199 161 237 217 13 19 26 35 29 35 3 0 19
-11 35 -24 l30 -25 -45 -47 c-102 -106 -279 -216 -420 -260 -54 -17 -86 -34
-62 -34 24 0 177 61 241 96 86 47 183 120 246 183 l49 51 108 -107 c60 -59
108 -111 108 -115 0 -4 -25 -41 -55 -83 -30 -43 -55 -83 -55 -90 0 -12 162
-135 177 -135 4 0 33 25 64 56 l57 56 65 -68 c35 -38 75 -82 89 -98 l25 -29
-68 -34 c-49 -25 -87 -54 -139 -110 -108 -116 -158 -230 -192 -436 -3 -15 -10
-13 -59 18 l-56 35 -6 227 c-6 221 -23 503 -33 552 -13 61 -13 -3 1 -185 24
-327 26 -585 5 -754 l-19 -145 45 -350 c25 -192 47 -351 49 -353 4 -5 177 71
230 101 l40 23 0 144 0 144 125 44 c179 62 423 124 433 109 9 -13 55 35 164
168 259 320 435 729 498 1158 20 138 30 360 21 460 -7 66 -10 77 -27 77 -24 0
-62 74 -78 151 -7 30 -10 99 -9 151 3 115 -2 123 -108 174 -186 88 -239 291
-118 450 l34 44 -54 88 c-64 104 -134 198 -227 308 -74 87 -228 239 -235 231
-3 -2 0 -17 7 -33 6 -16 21 -77 34 -136 30 -135 47 -168 140 -270 97 -107 129
-170 123 -239 -9 -90 -68 -136 -150 -117 -96 21 -141 95 -163 267 -18 136 -23
156 -46 201 -24 47 -78 97 -174 160 -44 28 -90 61 -102 72 l-22 21 46 58 c25
33 68 80 96 106 l50 47 -26 22 c-50 43 -213 138 -352 205 -223 108 -448 177
-700 214 -130 19 -432 27 -560 14z m152 -31 c-3 -8 -6 -5 -6 6 -1 11 2 17 5
13 3 -3 4 -12 1 -19z m-10 -40 c-3 -8 -6 -5 -6 6 -1 11 2 17 5 13 3 -3 4 -12
1 -19z m-30 -100 c-3 -8 -6 -5 -6 6 -1 11 2 17 5 13 3 -3 4 -12 1 -19z m-506
-35 c-12 -20 -14 -14 -5 12 4 9 9 14 11 11 3 -2 0 -13 -6 -23z m-287 -82 c25
-27 17 -72 -15 -90 -24 -13 -29 -13 -53 2 -17 12 -26 26 -26 44 0 55 59 83 94
44z m737 -48 c-12 -20 -14 -14 -5 12 4 9 9 14 11 11 3 -2 0 -13 -6 -23z m-1
-111 c0 -15 -11 -29 -32 -42 l-32 -19 -19 29 c-24 39 -15 67 26 78 36 10 56
-7 57 -46z m-490 -17 c0 -26 -18 -45 -42 -45 -10 0 -18 -6 -18 -12 0 -7 -10 2
-22 20 -17 27 -19 38 -10 57 21 45 92 30 92 -20z m411 -82 c-12 -20 -14 -14
-5 12 4 9 9 14 11 11 3 -2 0 -13 -6 -23z m-494 -55 c-3 -8 -6 -5 -6 6 -1 11 2
17 5 13 3 -3 4 -12 1 -19z m464 -15 c-12 -20 -14 -14 -5 12 4 9 9 14 11 11 3
-2 0 -13 -6 -23z m-809 -141 c67 -21 67 -22 -9 -46 -52 -17 -53 -18 -71 -79
l-18 -62 -19 55 c-21 66 -29 76 -60 84 -13 3 -37 11 -52 17 -28 11 -28 11 31
32 59 22 60 23 80 82 l20 60 19 -62 19 -63 60 -18z m335 116 c-3 -8 -6 -5 -6
6 -1 11 2 17 5 13 3 -3 4 -12 1 -19z m-10 -40 c-3 -8 -6 -5 -6 6 -1 11 2 17 5
13 3 -3 4 -12 1 -19z m449 -15 c-8 -15 -15 -25 -16 -21 0 12 23 58 27 54 3 -2
-2 -17 -11 -33z m-459 -25 c-3 -8 -6 -5 -6 6 -1 11 2 17 5 13 3 -3 4 -12 1
-19z m-10 -50 c-3 -8 -6 -5 -6 6 -1 11 2 17 5 13 3 -3 4 -12 1 -19z m1971
-109 c6 -66 -1 -88 -50 -149 -42 -53 -43 -55 -39 -119 9 -141 7 -176 -13 -206
l-20 -30 -7 25 c-13 45 -9 216 6 303 13 77 52 203 77 250 9 18 11 18 25 -4 9
-12 18 -44 21 -70z m-1981 49 c-3 -7 -5 -2 -5 12 0 14 2 19 5 13 2 -7 2 -19 0
-25z m892 6 c12 -15 21 -34 21 -44 0 -30 -39 -70 -69 -70 -45 0 -71 26 -71 70
0 29 6 43 22 54 34 24 73 20 97 -10z m-514 -74 c-14 -27 -28 -50 -30 -50 -3 0
6 23 20 50 14 28 28 50 30 50 3 0 -6 -22 -20 -50z m-388 8 c-3 -7 -5 -2 -5 12
0 14 2 19 5 13 2 -7 2 -19 0 -25z m-10 -85 c-3 -10 -5 -2 -5 17 0 19 2 27 5
18 2 -10 2 -26 0 -35z m353 -3 c-6 -11 -13 -20 -16 -20 -2 0 0 9 6 20 6 11 13
20 16 20 2 0 0 -9 -6 -20z m-30 -49 c-5 -11 -15 -23 -21 -27 -6 -3 -3 5 6 20
20 30 30 35 15 7z m-50 -75 c0 -2 -8 -10 -17 -17 -16 -13 -17 -12 -4 4 13 16
21 21 21 13z m-273 -68 c-3 -7 -5 -2 -5 12 0 14 2 19 5 13 2 -7 2 -19 0 -25z
m198 -19 c-28 -28 -59 -55 -69 -61 -10 -6 10 17 45 51 78 74 92 80 24 10z
m2000 -13 c26 -26 41 -74 50 -157 9 -81 32 -113 102 -139 107 -40 131 -79 144
-234 19 -220 85 -285 389 -379 63 -20 137 -50 165 -68 49 -31 50 -32 25 -41
-14 -6 -83 -12 -155 -15 l-130 -5 -17 30 c-26 49 -57 62 -170 73 -128 12 -178
35 -225 103 -18 27 -42 80 -54 120 -75 261 -88 284 -199 351 -81 49 -112 102
-112 189 0 141 113 245 187 172z m-2171 -31 l17 -30 -20 24 c-12 13 -21 28
-21 34 0 12 0 11 24 -28z m1013 9 c41 -8 96 -24 122 -34 51 -20 49 -12 36
-141 l-6 -66 -67 19 c-100 29 -290 21 -387 -15 -38 -14 -72 -23 -76 -19 -19
23 -119 175 -119 182 0 12 128 61 200 75 90 18 207 18 297 -1z m-944 -41 c-7
-2 -21 -2 -30 0 -10 3 -4 5 12 5 17 0 24 -2 18 -5z m1178 -48 c148 -83 269
-238 331 -421 20 -60 23 -88 22 -214 0 -128 -3 -154 -26 -222 -124 -370 -496
-585 -871 -502 -201 44 -397 193 -490 373 -45 86 -53 111 -34 111 8 0 25 9 38
19 23 18 24 25 24 153 1 73 5 156 9 184 8 46 6 54 -13 73 -12 12 -35 24 -50
27 l-29 6 14 41 c27 78 86 170 156 243 61 64 163 143 172 133 7 -9 113 -165
119 -175 4 -7 -13 -25 -43 -44 -67 -43 -158 -143 -197 -216 -173 -325 17 -718
393 -814 315 -81 642 91 745 390 29 84 31 228 5 315 -43 145 -152 280 -279
345 -60 31 -67 38 -63 60 3 14 8 55 12 93 3 37 7 67 9 67 1 0 22 -11 46 -25z
m-1313 -171 c29 -20 31 -79 3 -94 -49 -26 -94 1 -89 54 2 21 11 35 28 43 32
16 31 16 58 -3z m1374 -132 c106 -70 135 -252 40 -252 -35 0 -86 58 -111 125
-25 67 -26 93 -5 123 18 27 40 28 76 4z m-1108 -136 c41 -17 51 -42 37 -93
-17 -64 -23 -165 -13 -217 12 -62 2 -90 -37 -104 l-30 -11 -15 69 c-24 104
-19 277 9 358 6 15 8 15 49 -2z m-216 -63 c37 -49 54 -81 45 -86 -23 -15 -205
-57 -216 -51 -36 22 -147 118 -142 123 5 5 219 44 272 50 6 0 25 -16 41 -36z
m1476 -99 c21 -21 20 -37 -3 -58 -15 -14 -24 -15 -40 -6 -26 13 -28 55 -3 69
23 14 28 14 46 -5z m586 -168 c6 -8 10 -25 8 -38 -2 -19 -9 -23 -38 -23 -29 0
-36 4 -38 23 -4 28 14 52 38 52 10 0 23 -7 30 -14z m-2205 -106 l18 -59 63
-21 c35 -12 64 -23 64 -25 0 -2 -29 -13 -64 -25 l-63 -21 -18 -60 c-10 -33
-22 -62 -25 -64 -4 -3 -15 25 -25 60 l-17 65 -57 17 c-31 9 -60 20 -64 24 -5
4 20 16 56 28 l64 22 18 59 c10 33 21 60 25 60 4 0 15 -27 25 -60z m2065 -164
c0 -30 -23 -50 -49 -41 -23 7 -34 31 -26 56 12 38 75 26 75 -15z m-2537 9 c32
-5 36 -9 32 -28 -2 -12 -9 -62 -15 -112 -18 -157 -14 -148 -72 -142 -28 4 -52
8 -53 9 -1 2 0 67 3 146 l4 142 32 -4 c17 -3 48 -8 69 -11z m3602 -122 c16
-52 17 -53 78 -71 l62 -18 -55 -19 c-72 -23 -76 -27 -91 -86 -7 -27 -15 -49
-19 -49 -3 0 -14 26 -25 57 -20 56 -21 57 -80 77 l-60 20 62 18 63 19 17 59
c10 32 21 56 24 52 4 -4 14 -31 24 -59z m-4371 11 c21 -20 20 -58 0 -79 -25
-24 -75 -16 -93 16 -13 24 -13 29 2 53 20 30 66 35 91 10z m3277 -336 l77 -83
-55 -56 -55 -57 -84 60 c-68 49 -82 63 -75 77 16 29 101 141 107 141 4 0 42
-37 85 -82z m396 -435 c125 -143 157 -183 152 -187 -2 -1 -51 -33 -109 -70
-117 -77 -232 -163 -332 -248 l-67 -58 -78 48 -77 48 3 54 c7 142 83 304 196
417 64 65 154 123 190 123 6 0 61 -57 122 -127z m175 -239 c11 -37 34 -270 43
-434 l7 -126 -136 -33 c-75 -19 -200 -55 -279 -82 -88 -30 -144 -44 -148 -38
-3 6 -9 90 -12 187 l-6 177 57 54 c103 96 435 334 456 328 6 -2 14 -17 18 -33z
m-2637 -54 c42 -11 96 -30 118 -42 41 -23 41 -23 94 -192 29 -93 51 -171 49
-173 -2 -2 -27 3 -55 13 -84 27 -183 16 -278 -31 -93 -46 -217 -163 -257 -243
l-27 -53 -48 41 c-63 52 -152 148 -209 225 -54 72 -129 225 -137 280 -7 40 -6
41 37 62 101 51 275 107 388 126 76 13 251 6 325 -13z m224 -416 c23 -9 41
-21 41 -28 0 -6 -15 -34 -34 -61 l-33 -50 -114 0 c-106 0 -117 -2 -161 -28
-61 -35 -97 -84 -123 -163 l-20 -63 -63 39 -63 40 28 53 c35 65 151 182 223
224 107 63 222 76 319 37z m1791 -94 c14 -27 -19 -65 -48 -56 -32 11 -39 46
-13 67 24 20 47 16 61 -11z"/>
<path d="M2644 1343 c11 -849 26 -1156 58 -1188 7 -7 8 0 4 20 -30 150 -45
578 -46 1278 0 327 -3 447 -11 447 -9 0 -10 -144 -5 -557z"/>
<path d="M2944 1876 c-17 -7 -42 -29 -55 -47 -23 -32 -24 -43 -27 -206 l-4
-173 54 0 c29 0 104 3 166 7 l112 6 0 154 c0 167 -7 199 -54 243 -22 20 -39
25 -94 27 -42 2 -79 -2 -98 -11z m156 -11 c15 -8 38 -27 49 -41 19 -25 21 -40
21 -190 l0 -164 -148 0 -149 0 4 153 c5 166 12 198 52 226 44 32 126 39 171
16z"/>
<path d="M1677 350 c15 -38 39 -59 26 -22 -4 10 7 5 28 -15 58 -55 57 -37 -1
22 -30 30 -57 55 -61 55 -4 0 0 -18 8 -40z"/>
</g>
</svg>
